<?xml version="1.0" encoding="UTF-8"?>
<svg id="Layer_2" data-name="Layer 2" xmlns="http://www.w3.org/2000/svg" viewBox="0 0 91.59 95.35">
  <defs>
    <style>
      .cls-1 {
        fill: #7de3ff;
      }
    </style>
  </defs>
  <g id="Layer_1-2" data-name="Layer 1">
    <path class="cls-1" d="m39.77,0c9.24,0,17.14.67,23.71,2.01,6.56,1.34,11.92,3.56,16.06,6.65,4.15,3.09,7.19,7.13,9.13,12.13s2.92,11.12,2.92,18.35c0,13.01-4.04,22.76-12.11,29.26-8.08,6.5-19.89,9.39-35.43,8.66v18.29H0V0h39.77Zm-9.07,37.68c1.81,1.14,4.12,2.11,6.93,2.93,2.81.81,5.76,1.5,8.87,2.07,3.11.57,6.22,1,9.33,1.28,3.11.29,5.87.43,8.29.43v-3.41c-2.42,0-5.1-.16-8.03-.49-2.94-.32-5.85-.77-8.74-1.34-2.89-.57-5.61-1.24-8.16-2.01-2.55-.77-4.6-1.6-6.15-2.5l-2.33,3.05Z"/>
  </g>
</svg>