<?xml version="1.0" encoding="UTF-8"?>
<svg id="Layer_2" data-name="Layer 2" xmlns="http://www.w3.org/2000/svg" viewBox="0 0 94.57 95.35">
  <defs>
    <style>
      .cls-1 {
        fill: #7de3ff;
      }
    </style>
  </defs>
  <g id="Layer_1-2" data-name="Layer 1">
    <path class="cls-1" d="m91.59,36.7c0,5.85-1.02,10.73-3.04,14.63-2.03,3.9-4.64,7.28-7.84,10.12l13.86,33.77h-44.56l-8.42-23.04h-.13v23.17H0V0h39.77c9.24,0,17.14.77,23.71,2.32,6.56,1.54,11.92,3.84,16.06,6.89,4.15,3.05,7.19,6.87,9.13,11.46,1.94,4.59,2.92,9.94,2.92,16.03Zm-58.56-5.12l-2.33,3.05c1.81,1.14,4.12,2.11,6.93,2.93,2.81.81,5.76,1.5,8.87,2.07,3.11.57,6.22,1,9.33,1.28,3.11.29,5.87.43,8.29.43v-3.41c-2.42,0-5.1-.16-8.03-.49-2.94-.32-5.85-.77-8.75-1.34-2.89-.57-5.62-1.24-8.16-2.01-2.55-.77-4.6-1.6-6.15-2.5Z"/>
  </g>
</svg>