<?xml version="1.0" encoding="UTF-8"?>
<svg id="Layer_2" data-name="Layer 2" xmlns="http://www.w3.org/2000/svg" viewBox="0 0 97.81 99.01">
  <defs>
    <style>
      .cls-1 {
        fill: #7de3ff;
      }
    </style>
  </defs>
  <g id="Layer_1-2" data-name="Layer 1">
    <path class="cls-1" d="m0,49.5c0-8.13,1.23-15.28,3.69-21.46,2.46-6.18,5.85-11.34,10.17-15.48,4.32-4.15,9.48-7.27,15.48-9.39,6-2.11,12.5-3.17,19.5-3.17s13.6,1.06,19.56,3.17c5.96,2.11,11.12,5.24,15.48,9.39,4.36,4.15,7.77,9.31,10.23,15.48,2.46,6.18,3.69,13.33,3.69,21.46s-1.23,15.28-3.69,21.46c-2.46,6.18-5.87,11.34-10.23,15.49-4.36,4.15-9.52,7.27-15.48,9.39-5.96,2.11-12.48,3.17-19.56,3.17s-13.5-1.04-19.5-3.11c-6-2.07-11.16-5.18-15.48-9.33-4.32-4.15-7.71-9.31-10.17-15.48-2.46-6.18-3.69-13.37-3.69-21.58Zm33.81-5l-2.33,3.29c4.92,2.19,10.49,3.66,16.71,4.39,6.22.73,12.44,1.1,18.66,1.1v-3.66c-6.22,0-12.16-.38-17.81-1.16-5.66-.77-10.73-2.09-15.22-3.96Z"/>
  </g>
</svg>