<?xml version="1.0" encoding="UTF-8"?>
<svg id="Layer_2" data-name="Layer 2" xmlns="http://www.w3.org/2000/svg" xmlns:xlink="http://www.w3.org/1999/xlink" viewBox="0 0 247.39 310.59">
  <defs>
    <style>
      .cls-1 {
        fill: url(#linear-gradient-2);
      }

      .cls-2 {
        fill: url(#linear-gradient);
      }
    </style>
    <linearGradient id="linear-gradient" x1="-35.17" y1="133.98" x2="196.88" y2="48.25" gradientUnits="userSpaceOnUse">
      <stop offset=".28" stop-color="#ff7ff1"/>
      <stop offset=".79" stop-color="#7de3ff"/>
    </linearGradient>
    <linearGradient id="linear-gradient-2" x1="2.06" y1="315.86" x2="211.67" y2="112" gradientUnits="userSpaceOnUse">
      <stop offset=".28" stop-color="#ff7ff1"/>
      <stop offset=".79" stop-color="#7de3ff"/>
    </linearGradient>
  </defs>
  <g id="Layer_1-2" data-name="Layer 1">
    <g>
      <path class="cls-2" d="m217.9,54.51s10.95-22.46-19.47-22.04c0,0,1.18-19-10.7-15.89,0,0-.92-8.66-10.23-9.09-9.31-.43-14.65,5.07-15.06,8.18,0,0-14.56-18.16-28.61-.8,0,0-54.65-42.46-74.81,16.12,0,0-24.78-11.58-24.46,15.05,0,0-28.61,1.55-10.34,20.93,0,0-44.74,5.94-12.54,53.54l223.51,1.88s36.79-54.94-17.26-67.88Zm-123.58,24.79c-4.41-6.16-8.5,1.32-8.5,1.32,0,0-3.97,5.92-7.61,3.73-9.95-11.98-11.16,2.2-11.16,2.2-5.54,6.81-6.65-2.24-6.65-2.24,0,0,.49-5.89,5.25-8.39,11.11-4.69,14.77.91,14.77.91,2.66-6.13,11.66-3.94,15.69-2.48,4.02,1.46.33,6.93-1.79,4.95Zm83.74-6.44c1.34-7.41-6.97-4.95-6.97-4.95,0,0-7.09,1.44-8.08-2.62,1.62-15.36-9.48-6.17-9.48-6.17-8.84.98-3.08-6.18-3.08-6.18,0,0,4.6-3.83,9.77-2.3,11.24,4.38,9.79,10.87,9.79,10.87,6.31-2.49,11.09,5.29,12.88,9.1,1.79,3.81-4.77,5.13-4.84,2.26Z"/>
      <path class="cls-1" d="m80.04,130.6l24.13,179.2-21.47-.19c-28.5-.25-52.43-17.76-55.72-40.76L7.13,129.96l72.91.64Zm30.97,129.78l128.48-128.37-65.62-.58-66.29,66.85c-8.19,20.07,3.43,62.1,3.43,62.1Zm1,19.78c5.16,17.61,23.74,26.06,42.11,30.08l39.44.35-47.6-61.74-33.95,31.32Z"/>
    </g>
  </g>
</svg>