<?xml version="1.0" encoding="UTF-8"?>
<svg id="Layer_2" data-name="Layer 2" xmlns="http://www.w3.org/2000/svg" viewBox="0 0 772.1 99.01">
  <defs>
    <style>
      .cls-1 {
        fill: #7de3ff;
      }
    </style>
  </defs>
  <g id="Layer_1-2" data-name="Layer 1">
    <path class="cls-1" d="m39.77,1.83c9.24,0,17.14.67,23.71,2.01,6.56,1.34,11.92,3.56,16.06,6.65,4.15,3.09,7.19,7.13,9.13,12.13s2.92,11.12,2.92,18.35c0,13.01-4.04,22.76-12.11,29.26-8.08,6.5-19.89,9.39-35.43,8.66v18.29H0V1.83h39.77Zm-9.07,37.68c1.81,1.14,4.12,2.11,6.93,2.93,2.81.81,5.76,1.5,8.87,2.07,3.11.57,6.22,1,9.33,1.28,3.11.29,5.87.43,8.29.43v-3.41c-2.42,0-5.1-.16-8.03-.49-2.94-.32-5.85-.77-8.74-1.34-2.89-.57-5.61-1.24-8.16-2.01-2.55-.77-4.6-1.6-6.15-2.5l-2.33,3.05Z"/>
    <path class="cls-1" d="m104.29,49.5c0-8.13,1.23-15.28,3.69-21.46,2.46-6.18,5.85-11.34,10.17-15.48,4.32-4.15,9.48-7.27,15.48-9.39,6-2.11,12.5-3.17,19.5-3.17s13.6,1.06,19.56,3.17c5.96,2.11,11.12,5.24,15.48,9.39,4.36,4.15,7.77,9.31,10.23,15.48,2.46,6.18,3.69,13.33,3.69,21.46s-1.23,15.28-3.69,21.46c-2.46,6.18-5.87,11.34-10.23,15.49-4.36,4.15-9.52,7.27-15.48,9.39-5.96,2.11-12.48,3.17-19.56,3.17s-13.5-1.04-19.5-3.11c-6-2.07-11.16-5.18-15.48-9.33-4.32-4.15-7.71-9.31-10.17-15.48-2.46-6.18-3.69-13.37-3.69-21.58Zm33.81-5l-2.33,3.29c4.92,2.19,10.49,3.66,16.71,4.39,6.22.73,12.44,1.1,18.66,1.1v-3.66c-6.22,0-12.16-.38-17.81-1.16-5.66-.77-10.73-2.09-15.22-3.96Z"/>
    <path class="cls-1" d="m256.25,1.83c9.24,0,17.14.67,23.71,2.01,6.56,1.34,11.92,3.56,16.06,6.65,4.15,3.09,7.19,7.13,9.13,12.13s2.92,11.12,2.92,18.35c0,13.01-4.04,22.76-12.11,29.26-8.08,6.5-19.89,9.39-35.43,8.66v18.29h-44.05V1.83h39.77Zm-9.07,37.68c1.81,1.14,4.12,2.11,6.93,2.93,2.81.81,5.76,1.5,8.87,2.07,3.11.57,6.22,1,9.33,1.28,3.11.29,5.87.43,8.29.43v-3.41c-2.42,0-5.1-.16-8.03-.49-2.94-.32-5.85-.77-8.74-1.34-2.89-.57-5.61-1.24-8.16-2.01-2.55-.77-4.6-1.6-6.15-2.5l-2.33,3.05Z"/>
    <path class="cls-1" d="m457.17,49.5c0-8.13,1.23-15.28,3.69-21.46,2.46-6.18,5.85-11.34,10.17-15.48,4.32-4.15,9.48-7.27,15.48-9.39,6-2.11,12.5-3.17,19.5-3.17s13.6,1.06,19.56,3.17c5.96,2.11,11.12,5.24,15.48,9.39,4.36,4.15,7.77,9.31,10.23,15.48,2.46,6.18,3.69,13.33,3.69,21.46s-1.23,15.28-3.69,21.46c-2.46,6.18-5.87,11.34-10.23,15.49-4.36,4.15-9.52,7.27-15.48,9.39-5.96,2.11-12.48,3.17-19.56,3.17s-13.5-1.04-19.5-3.11c-6-2.07-11.16-5.18-15.48-9.33-4.32-4.15-7.71-9.31-10.17-15.48-2.46-6.18-3.69-13.37-3.69-21.58Zm33.81-5l-2.33,3.29c4.92,2.19,10.49,3.66,16.71,4.39,6.22.73,12.44,1.1,18.66,1.1v-3.66c-6.22,0-12.16-.38-17.81-1.16-5.66-.77-10.73-2.09-15.22-3.96Z"/>
    <path class="cls-1" d="m660.95,38.53c0,5.85-1.02,10.73-3.04,14.63-2.03,3.9-4.64,7.28-7.84,10.12l13.86,33.77h-44.56l-8.42-23.04h-.13v23.17h-41.46V1.83h39.77c9.24,0,17.14.77,23.71,2.32,6.56,1.54,11.92,3.84,16.06,6.89,4.15,3.05,7.19,6.87,9.13,11.46,1.94,4.59,2.92,9.94,2.92,16.03Zm-58.56-5.12l-2.33,3.05c1.81,1.14,4.12,2.11,6.93,2.93,2.81.81,5.76,1.5,8.87,2.07,3.11.57,6.22,1,9.33,1.28,3.11.29,5.87.43,8.29.43v-3.41c-2.42,0-5.1-.16-8.03-.49-2.94-.32-5.85-.77-8.75-1.34-2.89-.57-5.62-1.24-8.16-2.01-2.55-.77-4.6-1.6-6.15-2.5Z"/>
    <path class="cls-1" d="m772.1,1.83v95.35h-51.04l-10.36-32.07v32.07h-35.5V1.83h51.17l13.86,37.92,3.5-.85-8.55-22.8V1.83h36.92Z"/>
  </g>
</svg>